<?xml version="1.0" encoding="UTF-8" standalone="no"?>
<!DOCTYPE svg PUBLIC "-//W3C//DTD SVG 1.1//EN"
 "http://www.w3.org/Graphics/SVG/1.1/DTD/svg11.dtd">
<!-- Generated by graphviz version 2.42.4 (0)
 -->
<!-- Title: conceptual Pages: 1 -->
<svg width="1261pt" height="995pt"
 viewBox="0.00 0.00 1261.20 994.70" xmlns="http://www.w3.org/2000/svg" xmlns:xlink="http://www.w3.org/1999/xlink">
<g id="graph0" class="graph" transform="scale(1 1) rotate(0) translate(21.6 973.1)">
<title>conceptual</title>
<polygon fill="white" stroke="transparent" points="-21.6,21.6 -21.6,-973.1 1239.6,-973.1 1239.6,21.6 -21.6,21.6"/>
<text text-anchor="middle" x="609" y="-933.1" font-family="Arial" font-size="18.00">Modelo conceptual &#45; CiberBoxSecurBD (IDEF1X simplificado)</text>
<!-- perfis -->
<g id="node1" class="node">
<title>perfis</title>
<path fill="#f8faff" stroke="#2456ff" d="M12,-214C12,-214 111,-214 111,-214 117,-214 123,-220 123,-226 123,-226 123,-243 123,-243 123,-249 117,-255 111,-255 111,-255 12,-255 12,-255 6,-255 0,-249 0,-243 0,-243 0,-226 0,-226 0,-220 6,-214 12,-214"/>
<text text-anchor="middle" x="26.5" y="-232" font-family="Arial" font-size="10.00">PERFIS</text>
<polyline fill="none" stroke="#2456ff" points="53,-214 53,-255 "/>
<text text-anchor="start" x="61" y="-243" font-family="Arial" font-size="10.00">Identificador</text>
<text text-anchor="start" x="61" y="-232" font-family="Arial" font-size="10.00">Código</text>
<text text-anchor="start" x="61" y="-221" font-family="Arial" font-size="10.00">Nome</text>
</g>
<!-- utilizadores -->
<g id="node2" class="node">
<title>utilizadores</title>
<path fill="#f8faff" stroke="#2456ff" d="M293,-208.5C293,-208.5 429,-208.5 429,-208.5 435,-208.5 441,-214.5 441,-220.5 441,-220.5 441,-248.5 441,-248.5 441,-254.5 435,-260.5 429,-260.5 429,-260.5 293,-260.5 293,-260.5 287,-260.5 281,-254.5 281,-248.5 281,-248.5 281,-220.5 281,-220.5 281,-214.5 287,-208.5 293,-208.5"/>
<text text-anchor="middle" x="326" y="-232" font-family="Arial" font-size="10.00">UTILIZADORES</text>
<polyline fill="none" stroke="#2456ff" points="371,-208.5 371,-260.5 "/>
<text text-anchor="start" x="379" y="-248.5" font-family="Arial" font-size="10.00">Identificador</text>
<text text-anchor="start" x="379" y="-237.5" font-family="Arial" font-size="10.00">Nome</text>
<text text-anchor="start" x="379" y="-226.5" font-family="Arial" font-size="10.00">Email</text>
<text text-anchor="start" x="379" y="-215.5" font-family="Arial" font-size="10.00">Estado</text>
</g>
<!-- perfis&#45;&gt;utilizadores -->
<g id="edge1" class="edge">
<title>perfis&#45;&gt;utilizadores</title>
<path fill="none" stroke="#4d5d7a" d="M123.06,-234.5C168.59,-234.5 231.38,-234.5 280.88,-234.5"/>
<text text-anchor="middle" x="186.5" y="-237.3" font-family="Arial" font-size="9.00">1 &#160;classifica &#160;0..N</text>
</g>
<!-- utilizadores_clientes -->
<g id="node4" class="node">
<title>utilizadores_clientes</title>
<path fill="#eef3ff" stroke="#2456ff" d="M639.5,-300C639.5,-300 818.5,-300 818.5,-300 824.5,-300 830.5,-306 830.5,-312 830.5,-312 830.5,-329 830.5,-329 830.5,-335 824.5,-341 818.5,-341 818.5,-341 639.5,-341 639.5,-341 633.5,-341 627.5,-335 627.5,-329 627.5,-329 627.5,-312 627.5,-312 627.5,-306 633.5,-300 639.5,-300"/>
<text text-anchor="middle" x="700" y="-318" font-family="Arial" font-size="10.00">UTILIZADORES_CLIENTES</text>
<polyline fill="none" stroke="#2456ff" points="772.5,-300 772.5,-341 "/>
<text text-anchor="start" x="780.5" y="-329" font-family="Arial" font-size="10.00">Utilizador</text>
<text text-anchor="start" x="780.5" y="-318" font-family="Arial" font-size="10.00">Cliente</text>
<text text-anchor="start" x="780.5" y="-307" font-family="Arial" font-size="10.00">Principal</text>
</g>
<!-- utilizadores&#45;&gt;utilizadores_clientes -->
<g id="edge2" class="edge">
<title>utilizadores&#45;&gt;utilizadores_clientes</title>
<path fill="none" stroke="#4d5d7a" stroke-width="2" d="M441.1,-235.8C487.78,-238.54 547.45,-245.51 598,-262.5 612.16,-267.26 613.6,-272.9 627,-279.5 641.68,-286.74 657.97,-293.76 673.11,-299.9"/>
<text text-anchor="middle" x="549.5" y="-265.3" font-family="Arial" font-size="9.00">1 &#160;possui &#160;0..N</text>
</g>
<!-- avaliacoes -->
<g id="node7" class="node">
<title>avaliacoes</title>
<path fill="#f8faff" stroke="#2456ff" d="M648,-750.5C648,-750.5 810,-750.5 810,-750.5 816,-750.5 822,-756.5 822,-762.5 822,-762.5 822,-790.5 822,-790.5 822,-796.5 816,-802.5 810,-802.5 810,-802.5 648,-802.5 648,-802.5 642,-802.5 636,-796.5 636,-790.5 636,-790.5 636,-762.5 636,-762.5 636,-756.5 642,-750.5 648,-750.5"/>
<text text-anchor="middle" x="694" y="-774" font-family="Arial" font-size="10.00">AVALIACOES_RISCO</text>
<polyline fill="none" stroke="#2456ff" points="752,-750.5 752,-802.5 "/>
<text text-anchor="start" x="760" y="-790.5" font-family="Arial" font-size="10.00">Identificador</text>
<text text-anchor="start" x="760" y="-779.5" font-family="Arial" font-size="10.00">Data</text>
<text text-anchor="start" x="760" y="-768.5" font-family="Arial" font-size="10.00">Nível</text>
<text text-anchor="start" x="760" y="-757.5" font-family="Arial" font-size="10.00">Pontuação</text>
</g>
<!-- utilizadores&#45;&gt;avaliacoes -->
<g id="edge18" class="edge">
<title>utilizadores&#45;&gt;avaliacoes</title>
<path fill="none" stroke="#4d5d7a" stroke-dasharray="5,2" d="M373.25,-260.61C393.9,-308.93 438.77,-415.73 472,-507.5 486.31,-547.02 478.8,-561.82 501,-597.5 542.18,-663.68 564.55,-672.85 627,-719.5 642.08,-730.77 659.62,-741.41 675.81,-750.37"/>
<text text-anchor="middle" x="549.5" y="-699.3" font-family="Arial" font-size="9.00">0..1 &#160;regista &#160;0..N</text>
</g>
<!-- documentos -->
<g id="node12" class="node">
<title>documentos</title>
<path fill="#f8faff" stroke="#2456ff" d="M661.5,-382.5C661.5,-382.5 796.5,-382.5 796.5,-382.5 802.5,-382.5 808.5,-388.5 808.5,-394.5 808.5,-394.5 808.5,-422.5 808.5,-422.5 808.5,-428.5 802.5,-434.5 796.5,-434.5 796.5,-434.5 661.5,-434.5 661.5,-434.5 655.5,-434.5 649.5,-428.5 649.5,-422.5 649.5,-422.5 649.5,-394.5 649.5,-394.5 649.5,-388.5 655.5,-382.5 661.5,-382.5"/>
<text text-anchor="middle" x="694" y="-406" font-family="Arial" font-size="10.00">DOCUMENTOS</text>
<polyline fill="none" stroke="#2456ff" points="738.5,-382.5 738.5,-434.5 "/>
<text text-anchor="start" x="746.5" y="-422.5" font-family="Arial" font-size="10.00">Identificador</text>
<text text-anchor="start" x="746.5" y="-411.5" font-family="Arial" font-size="10.00">Categoria</text>
<text text-anchor="start" x="746.5" y="-400.5" font-family="Arial" font-size="10.00">Título</text>
<text text-anchor="start" x="746.5" y="-389.5" font-family="Arial" font-size="10.00">Metadados</text>
</g>
<!-- utilizadores&#45;&gt;documentos -->
<g id="edge19" class="edge">
<title>utilizadores&#45;&gt;documentos</title>
<path fill="none" stroke="#4d5d7a" stroke-dasharray="5,2" d="M395.34,-260.63C422.6,-281.1 462.76,-309.23 501,-328.5 548.39,-352.38 604.63,-372.25 649.27,-386.22"/>
<text text-anchor="middle" x="549.5" y="-369.3" font-family="Arial" font-size="9.00">0..1 &#160;submete &#160;0..N</text>
</g>
<!-- pedidos -->
<g id="node14" class="node">
<title>pedidos</title>
<path fill="#f8faff" stroke="#2456ff" d="M675,-113.5C675,-113.5 783,-113.5 783,-113.5 789,-113.5 795,-119.5 795,-125.5 795,-125.5 795,-153.5 795,-153.5 795,-159.5 789,-165.5 783,-165.5 783,-165.5 675,-165.5 675,-165.5 669,-165.5 663,-159.5 663,-153.5 663,-153.5 663,-125.5 663,-125.5 663,-119.5 669,-113.5 675,-113.5"/>
<text text-anchor="middle" x="694" y="-137" font-family="Arial" font-size="10.00">PEDIDOS</text>
<polyline fill="none" stroke="#2456ff" points="725,-113.5 725,-165.5 "/>
<text text-anchor="start" x="733" y="-153.5" font-family="Arial" font-size="10.00">Identificador</text>
<text text-anchor="start" x="733" y="-142.5" font-family="Arial" font-size="10.00">Assunto</text>
<text text-anchor="start" x="733" y="-131.5" font-family="Arial" font-size="10.00">Prioridade</text>
<text text-anchor="start" x="733" y="-120.5" font-family="Arial" font-size="10.00">Datas</text>
</g>
<!-- utilizadores&#45;&gt;pedidos -->
<g id="edge20" class="edge">
<title>utilizadores&#45;&gt;pedidos</title>
<path fill="none" stroke="#4d5d7a" d="M426.35,-208.45C449.61,-199.69 476.24,-190.39 501,-183.5 554.75,-168.53 617.06,-156.85 662.78,-149.29"/>
<text text-anchor="middle" x="549.5" y="-186.3" font-family="Arial" font-size="9.00">1 &#160;cria/acompanha &#160;0..N</text>
</g>
<!-- mensagens -->
<g id="node15" class="node">
<title>mensagens</title>
<path fill="#f8faff" stroke="#2456ff" d="M999.5,-59C999.5,-59 1177.5,-59 1177.5,-59 1183.5,-59 1189.5,-65 1189.5,-71 1189.5,-71 1189.5,-88 1189.5,-88 1189.5,-94 1183.5,-100 1177.5,-100 1177.5,-100 999.5,-100 999.5,-100 993.5,-100 987.5,-94 987.5,-88 987.5,-88 987.5,-71 987.5,-71 987.5,-65 993.5,-59 999.5,-59"/>
<text text-anchor="middle" x="1053.5" y="-77" font-family="Arial" font-size="10.00">MENSAGENS_PEDIDOS</text>
<polyline fill="none" stroke="#2456ff" points="1119.5,-59 1119.5,-100 "/>
<text text-anchor="start" x="1127.5" y="-88" font-family="Arial" font-size="10.00">Identificador</text>
<text text-anchor="start" x="1127.5" y="-77" font-family="Arial" font-size="10.00">Mensagem</text>
<text text-anchor="start" x="1127.5" y="-66" font-family="Arial" font-size="10.00">Data</text>
</g>
<!-- utilizadores&#45;&gt;mensagens -->
<g id="edge21" class="edge">
<title>utilizadores&#45;&gt;mensagens</title>
<path fill="none" stroke="#4d5d7a" d="M394.19,-208.45C441.7,-171.89 534.95,-107.18 627,-83.5 747.98,-52.38 892.83,-57.76 987.34,-66.67"/>
<text text-anchor="middle" x="729" y="-86.3" font-family="Arial" font-size="9.00">1 &#160;escreve &#160;0..N</text>
</g>
<!-- logs -->
<g id="node17" class="node">
<title>logs</title>
<path fill="#f8faff" stroke="#2456ff" d="M655,-206.5C655,-206.5 803,-206.5 803,-206.5 809,-206.5 815,-212.5 815,-218.5 815,-218.5 815,-246.5 815,-246.5 815,-252.5 809,-258.5 803,-258.5 803,-258.5 655,-258.5 655,-258.5 649,-258.5 643,-252.5 643,-246.5 643,-246.5 643,-218.5 643,-218.5 643,-212.5 649,-206.5 655,-206.5"/>
<text text-anchor="middle" x="694" y="-230" font-family="Arial" font-size="10.00">LOGS_ATIVIDADE</text>
<polyline fill="none" stroke="#2456ff" points="745,-206.5 745,-258.5 "/>
<text text-anchor="start" x="753" y="-246.5" font-family="Arial" font-size="10.00">Identificador</text>
<text text-anchor="start" x="753" y="-235.5" font-family="Arial" font-size="10.00">Ação</text>
<text text-anchor="start" x="753" y="-224.5" font-family="Arial" font-size="10.00">Entidade</text>
<text text-anchor="start" x="753" y="-213.5" font-family="Arial" font-size="10.00">Data</text>
</g>
<!-- utilizadores&#45;&gt;logs -->
<g id="edge22" class="edge">
<title>utilizadores&#45;&gt;logs</title>
<path fill="none" stroke="#4d5d7a" stroke-dasharray="5,2" d="M441,-216.43C460.51,-212.73 481.42,-209.38 501,-207.5 543.91,-203.37 555.08,-203.41 598,-207.5 612.53,-208.88 627.85,-211.12 642.67,-213.7"/>
<text text-anchor="middle" x="549.5" y="-210.3" font-family="Arial" font-size="9.00">0..1 &#160;gera &#160;0..N</text>
</g>
<!-- clientes -->
<g id="node3" class="node">
<title>clientes</title>
<path fill="#f8faff" stroke="#2456ff" d="M305,-527.5C305,-527.5 417,-527.5 417,-527.5 423,-527.5 429,-533.5 429,-539.5 429,-539.5 429,-567.5 429,-567.5 429,-573.5 423,-579.5 417,-579.5 417,-579.5 305,-579.5 305,-579.5 299,-579.5 293,-573.5 293,-567.5 293,-567.5 293,-539.5 293,-539.5 293,-533.5 299,-527.5 305,-527.5"/>
<text text-anchor="middle" x="326" y="-551" font-family="Arial" font-size="10.00">CLIENTES</text>
<polyline fill="none" stroke="#2456ff" points="359,-527.5 359,-579.5 "/>
<text text-anchor="start" x="367" y="-567.5" font-family="Arial" font-size="10.00">Identificador</text>
<text text-anchor="start" x="367" y="-556.5" font-family="Arial" font-size="10.00">Nome</text>
<text text-anchor="start" x="367" y="-545.5" font-family="Arial" font-size="10.00">NIF</text>
<text text-anchor="start" x="367" y="-534.5" font-family="Arial" font-size="10.00">Estado</text>
</g>
<!-- clientes&#45;&gt;utilizadores_clientes -->
<g id="edge3" class="edge">
<title>clientes&#45;&gt;utilizadores_clientes</title>
<path fill="none" stroke="#4d5d7a" stroke-width="2" d="M386.47,-527.28C412.84,-500.09 456.98,-457.55 501,-428.5 540.66,-402.32 557.01,-407.55 598,-383.5 611.73,-375.45 613.11,-370.27 627,-362.5 641.17,-354.57 657.14,-347.25 672.13,-341.02"/>
<text text-anchor="middle" x="549.5" y="-431.3" font-family="Arial" font-size="9.00">1 &#160;possui &#160;0..N</text>
</g>
<!-- contactos -->
<g id="node5" class="node">
<title>contactos</title>
<path fill="#f8faff" stroke="#2456ff" d="M639,-843.5C639,-843.5 819,-843.5 819,-843.5 825,-843.5 831,-849.5 831,-855.5 831,-855.5 831,-883.5 831,-883.5 831,-889.5 825,-895.5 819,-895.5 819,-895.5 639,-895.5 639,-895.5 633,-895.5 627,-889.5 627,-883.5 627,-883.5 627,-855.5 627,-855.5 627,-849.5 633,-843.5 639,-843.5"/>
<text text-anchor="middle" x="694" y="-867" font-family="Arial" font-size="10.00">CONTACTOS_CLIENTES</text>
<polyline fill="none" stroke="#2456ff" points="761,-843.5 761,-895.5 "/>
<text text-anchor="start" x="769" y="-883.5" font-family="Arial" font-size="10.00">Identificador</text>
<text text-anchor="start" x="769" y="-872.5" font-family="Arial" font-size="10.00">Tipo</text>
<text text-anchor="start" x="769" y="-861.5" font-family="Arial" font-size="10.00">Nome</text>
<text text-anchor="start" x="769" y="-850.5" font-family="Arial" font-size="10.00">Email</text>
</g>
<!-- clientes&#45;&gt;contactos -->
<g id="edge4" class="edge">
<title>clientes&#45;&gt;contactos</title>
<path fill="none" stroke="#4d5d7a" d="M371.29,-579.65C389.23,-626.64 432.99,-725.72 501,-782.5 537.04,-812.59 584.63,-832.96 626.92,-846.37"/>
<text text-anchor="middle" x="549.5" y="-836.3" font-family="Arial" font-size="9.00">1 &#160;tem &#160;0..N</text>
</g>
<!-- clientes&#45;&gt;avaliacoes -->
<g id="edge5" class="edge">
<title>clientes&#45;&gt;avaliacoes</title>
<path fill="none" stroke="#4d5d7a" d="M375.37,-579.56C396.55,-618.08 441.58,-689.63 501,-726.5 541.29,-751.5 592.42,-764.08 635.94,-770.38"/>
<text text-anchor="middle" x="549.5" y="-765.3" font-family="Arial" font-size="9.00">1 &#160;recebe &#160;0..N</text>
</g>
<!-- importacoes -->
<g id="node8" class="node">
<title>importacoes</title>
<path fill="#f8faff" stroke="#2456ff" d="M642,-566.5C642,-566.5 816,-566.5 816,-566.5 822,-566.5 828,-572.5 828,-578.5 828,-578.5 828,-606.5 828,-606.5 828,-612.5 822,-618.5 816,-618.5 816,-618.5 642,-618.5 642,-618.5 636,-618.5 630,-612.5 630,-606.5 630,-606.5 630,-578.5 630,-578.5 630,-572.5 636,-566.5 642,-566.5"/>
<text text-anchor="middle" x="694" y="-590" font-family="Arial" font-size="10.00">IMPORTACOES_EXCEL</text>
<polyline fill="none" stroke="#2456ff" points="758,-566.5 758,-618.5 "/>
<text text-anchor="start" x="766" y="-606.5" font-family="Arial" font-size="10.00">Identificador</text>
<text text-anchor="start" x="766" y="-595.5" font-family="Arial" font-size="10.00">Tipo</text>
<text text-anchor="start" x="766" y="-584.5" font-family="Arial" font-size="10.00">Estado</text>
<text text-anchor="start" x="766" y="-573.5" font-family="Arial" font-size="10.00">Contagens</text>
</g>
<!-- clientes&#45;&gt;importacoes -->
<g id="edge7" class="edge">
<title>clientes&#45;&gt;importacoes</title>
<path fill="none" stroke="#4d5d7a" d="M429.13,-560.65C485.37,-566.65 566.4,-575.28 629.91,-582.05"/>
<text text-anchor="middle" x="549.5" y="-580.3" font-family="Arial" font-size="9.00">1 &#160;origina &#160;0..N</text>
</g>
<!-- ativos -->
<g id="node10" class="node">
<title>ativos</title>
<path fill="#f8faff" stroke="#2456ff" d="M996.5,-674.5C996.5,-674.5 1180.5,-674.5 1180.5,-674.5 1186.5,-674.5 1192.5,-680.5 1192.5,-686.5 1192.5,-686.5 1192.5,-714.5 1192.5,-714.5 1192.5,-720.5 1186.5,-726.5 1180.5,-726.5 1180.5,-726.5 996.5,-726.5 996.5,-726.5 990.5,-726.5 984.5,-720.5 984.5,-714.5 984.5,-714.5 984.5,-686.5 984.5,-686.5 984.5,-680.5 990.5,-674.5 996.5,-674.5"/>
<text text-anchor="middle" x="1053.5" y="-698" font-family="Arial" font-size="10.00">ATIVOS_TECNOLOGICOS</text>
<polyline fill="none" stroke="#2456ff" points="1122.5,-674.5 1122.5,-726.5 "/>
<text text-anchor="start" x="1130.5" y="-714.5" font-family="Arial" font-size="10.00">Identificador</text>
<text text-anchor="start" x="1130.5" y="-703.5" font-family="Arial" font-size="10.00">Inventário</text>
<text text-anchor="start" x="1130.5" y="-692.5" font-family="Arial" font-size="10.00">Nome</text>
<text text-anchor="start" x="1130.5" y="-681.5" font-family="Arial" font-size="10.00">Criticidade</text>
</g>
<!-- clientes&#45;&gt;ativos -->
<g id="edge9" class="edge">
<title>clientes&#45;&gt;ativos</title>
<path fill="none" stroke="#4d5d7a" d="M382.51,-579.75C407.09,-608.95 451.24,-654.61 501,-674.5 585.94,-708.45 840.11,-707.58 984.44,-704.02"/>
<text text-anchor="middle" x="729" y="-708.3" font-family="Arial" font-size="9.00">1 &#160;possui &#160;0..N</text>
</g>
<!-- incidentes -->
<g id="node11" class="node">
<title>incidentes</title>
<path fill="#f8faff" stroke="#2456ff" d="M1026,-466C1026,-466 1151,-466 1151,-466 1157,-466 1163,-472 1163,-478 1163,-478 1163,-517 1163,-517 1163,-523 1157,-529 1151,-529 1151,-529 1026,-529 1026,-529 1020,-529 1014,-523 1014,-517 1014,-517 1014,-478 1014,-478 1014,-472 1020,-466 1026,-466"/>
<text text-anchor="middle" x="1053.5" y="-495" font-family="Arial" font-size="10.00">INCIDENTES</text>
<polyline fill="none" stroke="#2456ff" points="1093,-466 1093,-529 "/>
<text text-anchor="start" x="1101" y="-517" font-family="Arial" font-size="10.00">Identificador</text>
<text text-anchor="start" x="1101" y="-506" font-family="Arial" font-size="10.00">Código</text>
<text text-anchor="start" x="1101" y="-495" font-family="Arial" font-size="10.00">Data/hora</text>
<text text-anchor="start" x="1101" y="-484" font-family="Arial" font-size="10.00">Gravidade</text>
<text text-anchor="start" x="1101" y="-473" font-family="Arial" font-size="10.00">Estado</text>
</g>
<!-- clientes&#45;&gt;incidentes -->
<g id="edge11" class="edge">
<title>clientes&#45;&gt;incidentes</title>
<path fill="none" stroke="#4d5d7a" d="M429.28,-548.31C565.4,-537.8 872.51,-514.09 1013.81,-503.19"/>
<text text-anchor="middle" x="729" y="-535.3" font-family="Arial" font-size="9.00">1 &#160;regista &#160;0..N</text>
</g>
<!-- clientes&#45;&gt;documentos -->
<g id="edge13" class="edge">
<title>clientes&#45;&gt;documentos</title>
<path fill="none" stroke="#4d5d7a" d="M408.42,-527.47C435.03,-513.14 469.34,-495.65 501,-482.5 549.33,-462.43 605.2,-444.15 649.42,-430.79"/>
<text text-anchor="middle" x="549.5" y="-485.3" font-family="Arial" font-size="9.00">1 &#160;possui &#160;0..N</text>
</g>
<!-- clientes&#45;&gt;pedidos -->
<g id="edge14" class="edge">
<title>clientes&#45;&gt;pedidos</title>
<path fill="none" stroke="#4d5d7a" d="M371.27,-527.32C389.32,-479.7 433.45,-378.21 501,-317.5 536.21,-285.85 566.31,-308.67 598,-273.5 625.28,-243.22 599.87,-216.91 627,-186.5 636.79,-175.53 649.66,-166.93 662.93,-160.27"/>
<text text-anchor="middle" x="549.5" y="-320.3" font-family="Arial" font-size="9.00">1 &#160;cria &#160;0..N</text>
</g>
<!-- estados_conf -->
<g id="node6" class="node">
<title>estados_conf</title>
<path fill="#f8faff" stroke="#2456ff" d="M262,-882C262,-882 460,-882 460,-882 466,-882 472,-888 472,-894 472,-894 472,-911 472,-911 472,-917 466,-923 460,-923 460,-923 262,-923 262,-923 256,-923 250,-917 250,-911 250,-911 250,-894 250,-894 250,-888 256,-882 262,-882"/>
<text text-anchor="middle" x="326" y="-900" font-family="Arial" font-size="10.00">ESTADOS_CONFORMIDADE</text>
<polyline fill="none" stroke="#2456ff" points="402,-882 402,-923 "/>
<text text-anchor="start" x="410" y="-911" font-family="Arial" font-size="10.00">Identificador</text>
<text text-anchor="start" x="410" y="-900" font-family="Arial" font-size="10.00">Código</text>
<text text-anchor="start" x="410" y="-889" font-family="Arial" font-size="10.00">Nome</text>
</g>
<!-- estados_conf&#45;&gt;avaliacoes -->
<g id="edge6" class="edge">
<title>estados_conf&#45;&gt;avaliacoes</title>
<path fill="none" stroke="#4d5d7a" d="M472.09,-897.79C513.8,-892.07 560.28,-880.68 598,-858.5 615.41,-848.26 611.01,-835.84 627,-823.5 637.26,-815.58 649.07,-808.59 660.91,-802.58"/>
<text text-anchor="middle" x="549.5" y="-894.3" font-family="Arial" font-size="9.00">1 &#160;classifica &#160;0..N</text>
</g>
<!-- linhas -->
<g id="node9" class="node">
<title>linhas</title>
<path fill="#f8faff" stroke="#2456ff" d="M994,-581.5C994,-581.5 1183,-581.5 1183,-581.5 1189,-581.5 1195,-587.5 1195,-593.5 1195,-593.5 1195,-621.5 1195,-621.5 1195,-627.5 1189,-633.5 1183,-633.5 1183,-633.5 994,-633.5 994,-633.5 988,-633.5 982,-627.5 982,-621.5 982,-621.5 982,-593.5 982,-593.5 982,-587.5 988,-581.5 994,-581.5"/>
<text text-anchor="middle" x="1044.5" y="-605" font-family="Arial" font-size="10.00">LINHAS_IMPORTACAO</text>
<polyline fill="none" stroke="#2456ff" points="1107,-581.5 1107,-633.5 "/>
<text text-anchor="start" x="1115" y="-621.5" font-family="Arial" font-size="10.00">Identificador</text>
<text text-anchor="start" x="1115" y="-610.5" font-family="Arial" font-size="10.00">Número da linha</text>
<text text-anchor="start" x="1115" y="-599.5" font-family="Arial" font-size="10.00">Estado</text>
<text text-anchor="start" x="1115" y="-588.5" font-family="Arial" font-size="10.00">Erro</text>
</g>
<!-- importacoes&#45;&gt;linhas -->
<g id="edge8" class="edge">
<title>importacoes&#45;&gt;linhas</title>
<path fill="none" stroke="#4d5d7a" d="M828.16,-596.62C875.81,-598.62 933.12,-601.02 981.73,-603.06"/>
<text text-anchor="middle" x="895" y="-602.3" font-family="Arial" font-size="9.00">1 &#160;detalha &#160;1..N</text>
</g>
<!-- importacoes&#45;&gt;ativos -->
<g id="edge10" class="edge">
<title>importacoes&#45;&gt;ativos</title>
<path fill="none" stroke="#4d5d7a" stroke-dasharray="5,2" d="M816.09,-618.51C872.18,-635.45 945.1,-657.48 1001.23,-674.44"/>
<text text-anchor="middle" x="895" y="-652.3" font-family="Arial" font-size="9.00">0..1 &#160;origina &#160;0..N</text>
</g>
<!-- importacoes&#45;&gt;incidentes -->
<g id="edge12" class="edge">
<title>importacoes&#45;&gt;incidentes</title>
<path fill="none" stroke="#4d5d7a" stroke-dasharray="5,2" d="M828.16,-566.42C886.87,-550.82 960.24,-531.32 1013.94,-517.05"/>
<text text-anchor="middle" x="895" y="-558.3" font-family="Arial" font-size="9.00">0..1 &#160;origina &#160;0..N</text>
</g>
<!-- estados_ped -->
<g id="node13" class="node">
<title>estados_ped</title>
<path fill="#f8faff" stroke="#2456ff" d="M280.5,-0.5C280.5,-0.5 441.5,-0.5 441.5,-0.5 447.5,-0.5 453.5,-6.5 453.5,-12.5 453.5,-12.5 453.5,-40.5 453.5,-40.5 453.5,-46.5 447.5,-52.5 441.5,-52.5 441.5,-52.5 280.5,-52.5 280.5,-52.5 274.5,-52.5 268.5,-46.5 268.5,-40.5 268.5,-40.5 268.5,-12.5 268.5,-12.5 268.5,-6.5 274.5,-0.5 280.5,-0.5"/>
<text text-anchor="middle" x="326" y="-24" font-family="Arial" font-size="10.00">ESTADOS_PEDIDOS</text>
<polyline fill="none" stroke="#2456ff" points="383.5,-0.5 383.5,-52.5 "/>
<text text-anchor="start" x="391.5" y="-40.5" font-family="Arial" font-size="10.00">Identificador</text>
<text text-anchor="start" x="391.5" y="-29.5" font-family="Arial" font-size="10.00">Código</text>
<text text-anchor="start" x="391.5" y="-18.5" font-family="Arial" font-size="10.00">Nome</text>
<text text-anchor="start" x="391.5" y="-7.5" font-family="Arial" font-size="10.00">Estado final</text>
</g>
<!-- estados_ped&#45;&gt;pedidos -->
<g id="edge15" class="edge">
<title>estados_ped&#45;&gt;pedidos</title>
<path fill="none" stroke="#4d5d7a" d="M446.43,-52.57C512.29,-72.9 602.44,-100.74 662.82,-119.38"/>
<text text-anchor="middle" x="549.5" y="-98.3" font-family="Arial" font-size="9.00">1 &#160;define &#160;0..N</text>
</g>
<!-- pedidos&#45;&gt;mensagens -->
<g id="edge16" class="edge">
<title>pedidos&#45;&gt;mensagens</title>
<path fill="none" stroke="#4d5d7a" d="M795.16,-128.56C848.83,-119.56 925.83,-106.63 987.34,-96.31"/>
<text text-anchor="middle" x="895" y="-119.3" font-family="Arial" font-size="9.00">1 &#160;contém &#160;0..N</text>
</g>
<!-- historico -->
<g id="node16" class="node">
<title>historico</title>
<path fill="#f8faff" stroke="#2456ff" d="M971,-157.5C971,-157.5 1206,-157.5 1206,-157.5 1212,-157.5 1218,-163.5 1218,-169.5 1218,-169.5 1218,-197.5 1218,-197.5 1218,-203.5 1212,-209.5 1206,-209.5 1206,-209.5 971,-209.5 971,-209.5 965,-209.5 959,-203.5 959,-197.5 959,-197.5 959,-169.5 959,-169.5 959,-163.5 965,-157.5 971,-157.5"/>
<text text-anchor="middle" x="1047" y="-181" font-family="Arial" font-size="10.00">HISTORICO_ESTADOS_PEDIDOS</text>
<polyline fill="none" stroke="#2456ff" points="1135,-157.5 1135,-209.5 "/>
<text text-anchor="start" x="1143" y="-197.5" font-family="Arial" font-size="10.00">Identificador</text>
<text text-anchor="start" x="1143" y="-186.5" font-family="Arial" font-size="10.00">Estado anterior</text>
<text text-anchor="start" x="1143" y="-175.5" font-family="Arial" font-size="10.00">Estado novo</text>
<text text-anchor="start" x="1143" y="-164.5" font-family="Arial" font-size="10.00">Data</text>
</g>
<!-- pedidos&#45;&gt;historico -->
<g id="edge17" class="edge">
<title>pedidos&#45;&gt;historico</title>
<path fill="none" stroke="#4d5d7a" d="M795.16,-147.52C840.77,-153.13 903.24,-160.82 958.72,-167.65"/>
<text text-anchor="middle" x="895" y="-165.3" font-family="Arial" font-size="9.00">1 &#160;possui &#160;1..N</text>
</g>
</g>
</svg>
